<?xml version="1.0" standalone="no"?>
<!DOCTYPE svg PUBLIC "-//W3C//DTD SVG 20010904//EN"
 "http://www.w3.org/TR/2001/REC-SVG-20010904/DTD/svg10.dtd">
<svg version="1.0" xmlns="http://www.w3.org/2000/svg"
 width="90.000000pt" height="90.000000pt" viewBox="0 0 90.000000 90.000000"
 preserveAspectRatio="xMidYMid meet">

<g transform="translate(0.000000,90.000000) scale(0.100000,-0.100000)"
fill="#000000" stroke="none">
<path d="M60 450 l0 -390 338 -2 c185 -1 348 -1 361 0 13 1 37 13 53 28 l28
28 0 233 0 233 -75 0 -75 0 0 130 0 130 -315 0 -315 0 0 -390z m600 11 c0
-187 3 -347 6 -355 6 -15 -21 -16 -282 -14 l-289 3 -3 353 -2 352 285 0 285 0
0 -339z m150 -113 c0 -213 -6 -241 -53 -246 -55 -7 -57 1 -57 229 l0 209 55 0
55 0 0 -192z"/>
<path d="M172 618 l3 -113 81 -3 c61 -2 84 1 93 12 8 9 11 47 9 112 l-3 99
-93 3 -93 3 3 -113z"/>
<path d="M430 675 c0 -12 15 -15 75 -15 60 0 75 3 75 15 0 12 -15 15 -75 15
-60 0 -75 -3 -75 -15z"/>
<path d="M430 560 c0 -18 7 -20 75 -20 68 0 75 2 75 20 0 18 -7 20 -75 20 -68
0 -75 -2 -75 -20z"/>
<path d="M170 410 c0 -19 7 -20 205 -20 198 0 205 1 205 20 0 19 -7 20 -205
20 -198 0 -205 -1 -205 -20z"/>
<path d="M170 300 c0 -19 7 -20 205 -20 198 0 205 1 205 20 0 19 -7 20 -205
20 -198 0 -205 -1 -205 -20z"/>
<path d="M170 190 c0 -19 7 -20 205 -20 198 0 205 1 205 20 0 19 -7 20 -205
20 -198 0 -205 -1 -205 -20z"/>
</g>
</svg>
